<svg preserveAspectRatio="xMidYMid meet" data-bbox="20.001 29.5 159.999 141.001" viewBox="20.001 29.5 159.999 141.001" height="200" width="200" xmlns="http://www.w3.org/2000/svg" data-type="color" role="presentation" aria-hidden="true" aria-label=""><defs><style>#comp-ml1hx6qp svg [data-color="1"] {fill: #E6C404;}</style></defs>
    <g>
        <path d="M136.1 86.079c-.06-.139-.161-.243-.247-.36-9.608-17.694-27.805-30.171-48.821-31.156-9.224-.455-18.476 1.437-26.678 5.405a1.893 1.893 0 0 0-.879 2.525 1.89 1.89 0 0 0 2.521.881c4.029-1.949 8.336-3.347 12.764-4.185-8.046 6.645-14.471 17.058-18.151 29.557-5.044-1.576-9.986-3.484-14.752-5.79a1.857 1.857 0 0 0-1.325-.1 52.656 52.656 0 0 1 4.007-5.654c.66-.808.538-2-.27-2.659a1.883 1.883 0 0 0-2.655.271c-8.055 9.898-12.423 22.026-12.633 35.073-.452 28.168 19.094 52.621 45.3 58.991.359.143.72.27 1.085.38.164.049.328.075.49.079.092.003.179-.026.269-.036a56.926 56.926 0 0 0 9.938 1.175c14.746.433 28.702-4.834 39.394-14.892 11.132-10.472 17.402-24.844 17.654-40.469.167-10.367-2.389-20.225-6.975-28.872-.019-.055-.013-.111-.036-.164zm-4.753 56.422a106.675 106.675 0 0 0-11.431-4.662c1.253-6.885 1.348-13.868 1.119-20.3l18.163.533c-.618 8.84-3.317 17.173-7.851 24.429zm-23.096 19.013c.322.175.64.358.959.54-.947.437-1.906.846-2.878 1.224a34.9 34.9 0 0 0 1.919-1.764zm-15.798 4.569c-.365.068-.661.26-.914.496a52.08 52.08 0 0 1-2.991.128c-.001-3.783-.027-7.591-.039-11.384 5.58.657 11.055 2.126 16.16 4.407-3.617 3.295-7.811 5.533-12.216 6.353zm-16.833-.776c-3.057-1.242-6.401-4.289-9.116-8.271a56.345 56.345 0 0 1 18.229-2.04c.012 3.876.038 7.765.04 11.63a53.174 53.174 0 0 1-9.153-1.319zm-42.711-50.362c.015.001.027.009.041.01l20.078.589c.024 5.215.407 10.531 1.198 15.898-5.233.414-10.795.994-16.787 1.745a55.725 55.725 0 0 1-4.53-18.242zm51.27-17.493c.082 5.077.175 10.152.24 15.23l-27.563-.809c.202-6.383 1.001-12.562 2.419-18.41a116.424 116.424 0 0 0 24.904 3.989zm12.813-37.639a53.796 53.796 0 0 1 11.395 4.202 39.171 39.171 0 0 1-3.555 2.297c-2.403-2.546-5.034-4.728-7.84-6.499zm-9.796-.349c5.066 1.49 9.878 4.495 14.033 8.633a43.473 43.473 0 0 1-13.767 3.513c-.089-4.049-.166-8.107-.266-12.146zm16.696 11.55a46.639 46.639 0 0 1 6.532 10.433c1.455 3.186 2.582 6.508 3.474 9.858a112.844 112.844 0 0 1-26 2.527c-.104-6.165-.223-12.315-.353-18.468 5.686-.468 11.252-1.932 16.347-4.35zm10.89 23.965c1.404 6.519 1.991 12.997 2.299 18.661l-28.887-.847c-.064-5.067-.157-10.132-.239-15.198 9.008.167 18.026-.712 26.827-2.616zm-57.979 20.676 27.653.811c.057 4.86.099 9.715.14 14.569-8.275-.536-16.895-.5-26.6.136a108.655 108.655 0 0 1-1.193-15.516zm27.829 19.171c.042 5.475.066 10.93.088 16.39a60.108 60.108 0 0 0-20.226 2.479c-2.295-4.346-4.04-9.638-5.451-16.583-.149-.732-.254-1.46-.388-2.19 9.485-.606 17.909-.627 25.977-.096zm-21.864 23.425a37.465 37.465 0 0 0 2.571 3.524 54.81 54.81 0 0 1-4.952-2.596c.784-.332 1.58-.635 2.381-.928zm25.727-6.734c-.021-5.451-.044-10.898-.085-16.364 9.669.876 18.741 2.607 27.115 5.209a47.235 47.235 0 0 1-1.882 6.038c-1.546 3.964-3.672 7.505-6.203 10.47-5.938-2.827-12.373-4.631-18.945-5.353zm-.121-20.163c-.042-4.924-.084-9.848-.142-14.778l29.024.851c.225 6.109.163 12.727-.956 19.207-8.64-2.655-17.987-4.404-27.926-5.28zm32.493-17.603c-.313-5.914-.916-12.719-2.404-19.614a111.393 111.393 0 0 0 14.976-4.918 55.726 55.726 0 0 1 5.889 25.074l-18.461-.542zm10.751-27.876a107.787 107.787 0 0 1-14.036 4.59c-.947-3.585-2.155-7.154-3.725-10.591-1.805-3.95-4.007-7.533-6.522-10.686 1.482-.871 2.929-1.797 4.294-2.842.138-.106.229-.245.33-.377 8.088 4.846 14.866 11.732 19.659 19.906zM81.13 59.245c.349-.214.572-.535.721-.885.515-.025 1.028-.06 1.544-.069.112 4.486.197 8.994.296 13.492-4.587.011-9.19-.69-13.586-2.127 3.271-4.374 7.003-7.948 11.025-10.411zM67.859 72.887a46.902 46.902 0 0 0 14.291 2.656c.541.016 1.081-.017 1.622-.019.127 6.044.244 12.086.347 18.141a112.587 112.587 0 0 1-23.889-3.857c1.848-6.237 4.462-11.98 7.629-16.921zM39.227 85.108c.131.526.46.997.986 1.251 4.985 2.412 10.153 4.41 15.431 6.05-1.504 6.149-2.349 12.647-2.56 19.353l-20.023-.587c-.104-.003-.195.038-.295.051-.003-.427-.018-.851-.011-1.279.142-8.902 2.364-17.337 6.472-24.839zm-.056 51.677c5.586-.684 10.792-1.216 15.699-1.597.161.893.292 1.783.474 2.678 1.427 7.025 3.201 12.493 5.529 17.057a54.579 54.579 0 0 0-4.261 1.802 56.754 56.754 0 0 1-17.441-19.94zm83.699 16.042a51.624 51.624 0 0 1-9.891 7.296 1.836 1.836 0 0 0-.603-.622c-.498-.303-1.015-.571-1.523-.857 2.561-3.142 4.719-6.802 6.305-10.866a50.923 50.923 0 0 0 1.964-6.219 102.825 102.825 0 0 1 10.065 4.112 52.245 52.245 0 0 1-6.317 7.156zm18.182-94.678a1.893 1.893 0 0 1 .057-2.673 1.886 1.886 0 0 1 2.669.058 86.955 86.955 0 0 1 6.139 7.158 1.891 1.891 0 0 1-1.55 3.043 1.88 1.88 0 0 1-1.442-.737 83.418 83.418 0 0 0-5.873-6.849zm-9-8.12a1.894 1.894 0 0 1-.334-2.654 1.884 1.884 0 0 1 2.649-.335 86.482 86.482 0 0 1 4.519 3.766 1.891 1.891 0 0 1-1.312 3.301 1.877 1.877 0 0 1-1.199-.479 82.733 82.733 0 0 0-4.323-3.599zm-10.986-9.354a1.885 1.885 0 0 1 2.566-.736 82.804 82.804 0 0 1 4.954 2.987 1.892 1.892 0 0 1-1.086 3.475 1.872 1.872 0 0 1-.972-.305 79.668 79.668 0 0 0-4.728-2.85 1.893 1.893 0 0 1-.734-2.571zm-14.88-6.053a1.888 1.888 0 0 1 2.373-1.225 82.79 82.79 0 0 1 7.814 2.947 1.892 1.892 0 0 1-.808 3.624 1.889 1.889 0 0 1-.698-.156A79.068 79.068 0 0 0 107.409 37a1.894 1.894 0 0 1-1.223-2.378zM91.311 31.74a1.875 1.875 0 0 1 2.1-1.651c2.614.316 5.249.764 7.832 1.334a1.891 1.891 0 0 1-.813 3.694 78.269 78.269 0 0 0-7.471-1.273 1.89 1.89 0 0 1-1.648-2.104zm-18.457.369a1.89 1.89 0 0 1 1.662-2.093 80.632 80.632 0 0 1 10.568-.503l.022.001a1.89 1.89 0 0 1-.089 3.78 76.91 76.91 0 0 0-10.074.479c-.092.011-.182.014-.272.011a1.889 1.889 0 0 1-1.817-1.675zm-17.603 4.624a1.89 1.89 0 0 1 1.123-2.425 78.403 78.403 0 0 1 8.097-2.483 1.89 1.89 0 0 1 .907 3.671 75.454 75.454 0 0 0-7.707 2.361 1.88 1.88 0 0 1-2.42-1.124zm-.538 36.544a1.89 1.89 0 0 0 1.936-1.725c.799-9.152 1.01-31.334-14.256-39.626-4.64-2.521-10.562-1.894-15.454 1.624-5.147 3.703-7.724 9.58-6.727 15.336 1.506 8.706 14.276 22.02 34.336 24.379.054.006.11.011.165.012zM31.3 47.886c.922-4.44 4.502-5.693 7.305-5.41 3.066.309 6.134 2.432 6.09 6.479-.212 4.228-2.384 6.707-5.813 6.633l-.055-.002c-3.568-.105-7.408-3.058-7.527-7.7zm147.29 26.807c-2.441-4.916-7.597-7.461-13.822-6.785-5.476.587-15.777 3.783-23.242 18.582a1.893 1.893 0 0 0 .884 2.566c.389.181.835.397 1.333.638 4.319 2.089 12.271 5.936 19.822 6.157 4.499.132 8.858-1.023 12.22-4.604 4.313-4.594 5.44-11.247 2.805-16.554zm-10.882 8.443c-.936 1.932-3.048 3.426-5.656 2.447-2.75-1.171-3.83-3.111-2.966-5.327.912-2.342 3.783-4.189 6.882-3.17 2.634 1.669 2.592 4.288 1.74 6.05z" fill="#D35B5B" data-color="1"></path>
    </g>
</svg>