<svg preserveAspectRatio="xMidYMid meet" data-bbox="19.999 27.492 160 144.999" viewBox="19.999 27.492 160 144.999" height="200" width="200" xmlns="http://www.w3.org/2000/svg" data-type="color" role="presentation" aria-hidden="true" aria-label=""><defs><style>#comp-ml1i1e5j svg [data-color="1"] {fill: #E6C404;}</style></defs>
    <g>
        <path d="M177.165 102.621c.004-.138-.177-.265-.299-.172-1.124.858-.9 2.106-.513 3.336.64 2.037 1.346 3.82.705 5.978-.641 2.16-2.326 2.725-3.95 3.954-1.384 1.047-1.897 2.526-2.015 4.216-.151 2.163-.673 3.042-2.481 4.18-1.145.721-2.404 1.378-3.296 2.422-.361.422-.656.89-.848 1.412-.367.996-.148 2.082-.845 2.915-.633.755-1.827 1.339-2.626 1.915-.995.718-1.99 1.433-2.961 2.184-.381.295-.465.706-.368 1.093-1.178.138-2.324.47-3.502.792-1.904.521-3.812 1.035-5.691 1.641a61 61 0 0 0-10.504 4.503c-3.314 1.807-6.337 3.915-9.217 6.352-2.814 2.382-6.119 5.121-7.63 8.577-.277.634.301 1.323.973.971 1.103-.578 2.138-1.296 3.141-2.074-.188 1.379-.303 2.783-.879 4.047-.873 1.916-2.278 2.443-4.089 3.144-.462.179-.721.936-.156 1.194 1.939.887 4.144-.555 5.245-2.137 1.468-2.109 1.764-4.883 1.209-7.322.557-.465 1.108-.937 1.66-1.405a3 3 0 0 0-.239.845c-.338 2.611.056 5.292-.381 7.892-.395 2.345-1.622 3.417-3.988 3.597-2.749.21-5.517.061-8.27.259l-2.494.176c.168-.119.341-.233.506-.356 1.524-1.131 3.357-2.396 4.283-4.089 1.179-2.155-1.197-4.608-3.378-3.374-1.4.792-2.487 2.104-3.816 3.027a28 28 0 0 1-4.012 2.316c-2.891 1.36-6.167 2.151-9.364 2.179-3.652.033-6.623-1.16-9.578-3.192l-4.773-3.284c-1.415-.973-2.9-2.28-4.695-2.016-.357.052-.706.519-.668.876.202 1.899 2.032 3.068 3.393 4.246l3.191 2.769c-2.338-.186-4.871.217-7.091.301-1.395.053-2.54.274-3.409-.968-.7-1.001-1.063-2.282-1.478-3.413-1.122-3.054-1.992-6.21-2.894-9.333a34 34 0 0 1-.17-.617c1.913 1.137 3.955 2.404 6.152 2.775.458.077.769-.33.578-.751-1.691-3.719-6.018-6.238-9.322-8.348-3.72-2.376-7.574-4.571-11.552-6.488-3.98-1.919-8.068-3.536-12.198-5.095-1.978-.747-3.922-1.605-5.944-2.231-2.079-.644-4.312-1.002-6.156-2.234-.915-.611-1.788-1.497-2.178-2.555 2.327 1.759 4.932 3.173 7.617 3.573.389.058.841-.438.443-.76-2.509-2.029-5.417-3.497-7.892-5.607-.124-.106-.245-.217-.368-.325-.084-.897-.447-1.632-1.72-1.621q-.627-.63-1.22-1.292c-.636-.714-1.312-1.448-1.747-2.306-.359-.707-.912-2.721.502-2.87.695-.073 1.152-.527 1.253-1.073 2.658 2.585 5.788 4.72 8.73 6.956 3.641 2.767 7.298 5.307 11.185 7.707.334.206.68-.26.414-.535-2.626-2.716-5.247-5.302-8.129-7.757-2.685-2.287-5.426-4.52-8.057-6.868-2.115-1.888-4.113-4.087-4.781-6.929-.556-2.364-.35-4.833 1.532-6.481 1.438 1.352 3.197 2.276 4.688 3.557 1.642 1.41 3.218 2.911 4.893 4.28 1.512 1.236 3.194 2.768 4.934 3.629 3.794 1.878 7.064 5.484 10.01 8.52 2.902 2.991 5.639 6.661 8.994 9.141.51.377 1.181-.352.856-.855-2.195-3.395-5.739-6.246-8.624-9.052-.78-.759-1.634-1.427-2.421-2.173-.779-.739-1.4-1.662-2.15-2.443-1.631-1.696-3.391-3.233-4.518-5.284-.927-1.686-2.575-3.249-3.929-4.633-1.432-1.464-3.028-2.794-4.547-4.168-1.62-1.466-2.964-3.123-4.659-4.506-.893-.729-1.811-1.055-2.819-1.58-.835-.435-1.37-.813-2.214-.654-.505-1.42-.665-2.923-.228-4.585.734-2.793 2.559-5.367 5.01-6.912 1.146-.723 1.012-2.083.311-2.855 2.154-1.386 3.021-4.32 3.773-6.668.529-1.653.854-3.294 1.72-4.824.369-.653.787-1.33 1.411-1.775.751-.537 1.593-.5 2.467-.685 4.363-.921 4.071-5.11 5.309-8.525.684-1.887 1.748-3.659 3.298-4.962 1.65-1.388 3.483-1.53 5.372-2.342.481-.207.766-.59.888-1.031a9.1 9.1 0 0 0 3.197-.735c2.253-.951 3.286-2.568 4.359-4.668.945-1.85 2.82-3.176 4.857-3.585 2.495-.501 5.026.77 7.48-.025a2.24 2.24 0 0 0 1.089-.794c1.145-.245 2.15-.883 2.902-1.774.952-1.129 1.353-2.684 2.518-3.639.926-.759 2.147-1.09 3.321-1.158 2.879-.167 5.455 1.061 8.159 1.767.311 2.937.982 5.706 1.385 8.615.447 3.22.818 6.409 1.04 9.654.433 6.324 1.206 12.638 1.477 18.971s.573 12.641.675 18.979c.052 3.222.198 6.444.3 9.665.102 3.224-.101 6.466.306 9.666.101.791 1.174.815 1.251 0 .306-3.213-.02-6.441-.058-9.666-.038-3.22-.053-6.447-.179-9.665-.245-6.214-.365-12.42-.587-18.634-.222-6.208-.023-12.416-.23-18.626-.107-3.222-.201-6.431-.069-9.654.129-3.143.464-6.213.397-9.364 1.002-.455 1.792-1.24 2.139-2.466.551-.132 1.096-.261 1.609-.403 1.451-.403 3.005-.543 4.493-.254 1.584.307 2.684 1.231 3.92 2.198 1.465 1.146 2.844 1.708 4.725 1.573 3.405-.245 6.565-2.333 9.997-1.287 1.533.467 2.828 1.406 4.307 1.949 1.239.455 2.205 1.43 3.261 2.254q.26.28.545.512c-.513.124-.965.491-1.153 1.157a20.5 20.5 0 0 0-.809 5.178c-.064 1.796-.515 3.556-.449 5.355.006.17.226.23.318.086.966-1.52 1.465-3.266 2.318-4.849a20.5 20.5 0 0 0 1.913-4.863 1.7 1.7 0 0 0-.023-.983c2.599.762 5.798.233 8.364.852 2.392.578 3.877 2.082 5.278 4.009.479.659 1.035 1.683 1.729 2.449-.055 1.243 1.85 2.35 2.749 2.864 2.031 1.163 4.395 1.08 6.457 2.09 2.044 1 3.518 2.839 4.563 4.812.972 1.835 1.282 4.234 2.43 5.959.212 2.113 1.901 3.868 3.487 5.245 2.882 2.504 5.456 4.732 4.97 8.936-.23 1.993-1.263 3.876-1.258 5.892.005 1.863 1.007 3.491 1.973 5.009 2.478 3.893 4.531 8.439 2.314 12.982-.145.297.249.669.491.379 2.645-3.175 2.137-7.048.689-10.672-.764-1.914-1.97-3.593-2.78-5.474-1.101-2.557.456-4.818.879-7.349.626-3.747-.441-6.922-3.235-9.469-2.042-1.86-4.183-3.307-5.719-5.505a1 1 0 0 0 .026-.141c.198-2.245-1.391-5.248-2.475-7.18-1.104-1.968-2.631-3.772-4.579-4.949-2.234-1.349-4.904-1.19-7.202-2.327-.208-.103-.661-.48-1.185-.87-.04-1.577-1.683-3.11-2.557-4.291-1.15-1.553-2.43-3.059-4.214-3.9-2.079-.979-4.424-.818-6.658-.76-2.046.053-3.97-.112-5.844-.809-.912-1.333-2.195-2.311-3.093-3.614-.951-1.378-2.646-2.289-4.2-2.884a10.44 10.44 0 0 0-5.315-.554c-1.833.282-4.275 1.558-6.117 1.089-1.621-.412-2.963-2.096-4.347-2.959a10.3 10.3 0 0 0-5.163-1.53c-1.824-.042-3.669.432-5.341 1.126-1.16.482-1.987 1.129-2.756 1.903-.641.034-1.304.034-1.884.047-1.405.033-2.758-.525-4.08-.934-2.849-.883-5.788-1.5-8.756-.852-2.345.512-4.577 1.853-5.909 3.876-.531.806-1.089 2.586-1.893 3.826a2.2 2.2 0 0 0-.649-.237c-4.808-.917-10.162-1.161-13.766 2.802-.729.802-1.284 1.771-1.718 2.757-.482 1.096-.635 2.381-1.383 3.343-.871 1.121-2.347 1.729-3.767 2.273a1.6 1.6 0 0 0-.617-.301c-3.857-.894-7.963 2.518-10.033 5.44-1.219 1.722-2.093 3.689-2.711 5.7-.301.979-.486 1.978-.731 2.97-.274 1.109-.602 1.092-1.623 1.427-3.536 1.16-5.5 3.973-6.332 7.489-.405 1.712-.441 3.465-.791 5.18-.343 1.678-.986 3.171-1.901 4.582a1.74 1.74 0 0 0-.907.29c-3.323 2.096-5.361 5.415-5.963 9.283-.475 3.055-.611 6.655.67 9.593-1.675 1.943-2.384 4.649-2.144 7.198.206 2.195 1.137 4.039 2.393 5.697-.534.247-.919.95-.604 1.574l.281.556a4.05 4.05 0 0 0-1.62 3.07c-.097 2.361 1.681 4.3 3.192 5.899q.351.37.723.746c-.387.73-.56 1.635-.595 2.371-.093 1.969.636 3.946 1.813 5.504 2.548 3.374 7.2 4.583 11.108 5.563 4.218 1.058 8.271 2.503 12.263 4.226 4.519 1.95 8.94 4.151 13.203 6.612.751.433 1.49.887 2.226 1.344a.93.93 0 0 0 .319.542c.895.765.738 2.695.9 3.752.263 1.719.586 3.438.977 5.133.688 2.981 1.225 6.371 2.631 9.116 1.568 3.061 4.422 3.58 7.597 3.348 3.219-.236 7.051.018 9.998-1.417.322-.157.541-.379.68-.633 1.02.853 2.051 1.616 3.388 2.16 2.068.841 4.237 1.134 6.462 1.033 3.633-.164 7.173-1.091 10.49-2.549.331.18.649.362 1.078.466.8.195 1.576.245 2.397.298 1.889.123 3.78.279 5.671.371 3.073.151 6.816.512 9.786-.475 2.712-.901 4.418-3.12 5.194-5.8.853-2.946 1.06-6.56.94-9.608-.075-1.896-1.595-2.625-2.936-2.304q.353-.279.71-.544a117 117 0 0 1 9.154-6.11 98 98 0 0 1 9.452-5.023c1.779-.822 3.584-1.577 5.451-2.175 1.703-.545 3.401-.897 4.954-1.799a.59.59 0 0 0 .317-.562c1.777-1.18 3.689-2.401 5.25-3.821.541-.492 1.026-1.082 1.232-1.799.25-.867-.043-1.812.344-2.637.623-1.326 2.355-2.07 3.475-2.912 1.029-.773 1.937-1.674 2.466-2.864.884-1.989.188-4.177 1.959-5.751 1.28-1.138 2.619-2.017 3.365-3.624.632-1.361.822-2.913.627-4.394-.287-2.197-1.65-3.94-1.59-6.235" fill="#5096B2" data-color="1"></path>
        <path d="M129.656 53.523c-.022 0-.022.035 0 .035.022-.001.022-.035 0-.035" fill="#5096B2" data-color="1"></path>
        <path d="M117.572 101.99c1.994-3.512 3.125-7.147 4.155-11.039.527-1.994 1.197-3.908 1.594-5.937.396-2.023.756-4.053 1.109-6.084 1.417-8.159 3.086-16.11 5.731-23.969.274-.814-.951-1.104-1.261-.347-3.072 7.489-4.352 15.68-6.049 23.562-.842 3.909-1.586 7.875-2.516 11.756-.946 3.947-2.403 7.827-3.646 11.687-.169.522.615.844.883.371" fill="#5096B2" data-color="1"></path>
        <path d="M103.646 115.571c-.15 1.058 1.44 1.548 1.645.453 2.439-13.045 3.712-26.24 5.041-39.432.666-6.608 1.896-13.088 2.388-19.708.234-3.14.701-6.736.234-9.863-.523-3.501-.324-7.019-.293-10.568.006-.625-.934-.617-.967 0-.097 1.817-.189 3.636-.313 5.451-.123 1.792-.436 3.384-.844 5.117-.687 2.914-.649 6.196-.81 9.183-.185 3.431-.339 6.772-.253 10.201.079 3.163-.236 6.362-.531 9.509-1.244 13.287-3.428 26.444-5.297 39.657" fill="#5096B2" data-color="1"></path>
        <path d="M131.811 96.046c1.03-2.331 2.127-4.638 3.12-6.985 1.034-2.444 1.658-4.992 2.358-7.543.104-.378-.419-.588-.624-.263-1.412 2.246-2.882 4.435-3.963 6.867-1.035 2.328-1.976 4.703-2.947 7.058-2.027 4.917-3.999 9.858-5.854 14.843-3.685 9.901-7.494 20.029-9.279 30.47-.109.638.791.913.987.272 3.094-10.083 6.006-20.147 9.943-29.951 1.991-4.962 4.098-9.877 6.259-14.768" fill="#5096B2" data-color="1"></path>
        <path d="M148.247 54.075c-2.131 2.551-3.36 5.84-4.777 8.826-1.514 3.19-2.901 6.44-4.292 9.684-.437 1.02 1.037 1.928 1.522.889 1.491-3.191 3.04-6.355 4.527-9.547 1.402-3.01 3.253-6.043 3.971-9.299.111-.508-.561-1.02-.951-.553" fill="#5096B2" data-color="1"></path>
        <path d="M124.968 131.341c3.152-5.819 6.887-11.315 10.048-17.14a418 418 0 0 1 4.839-8.684c1.52-2.648 3.505-5.25 4.644-8.078.065-.161-.175-.285-.285-.166-2.066 2.231-3.539 5.205-5.173 7.768a483 483 0 0 0-5.266 8.435c-3.475 5.706-6.046 11.784-9.003 17.751-.064.129.126.244.196.114" fill="#5096B2" data-color="1"></path>
        <path d="M147.364 89.673c-.15.254.232.471.393.229 2.657-3.975 5.352-7.927 7.97-11.927 1.332-2.036 2.553-4.145 4.073-6.049 1.11-1.39 3.25-3.353 3.052-5.24-.048-.455-.457-.923-.972-.739-.448.16-.832.428-1.17.764.429-1.132.263-2.115-.525-3.185-.868-1.178-1.995-1.989-3.349-2.53-1.338-.534-2.292 1.715-.986 2.336.915.435 1.649 1.049 2.156 1.934.298.519.505.904.945 1.317.257.241.495.475.728.739a.48.48 0 0 0 .412.144c-.416.611-.753 1.318-1.055 2.005-.598-1.187-1.549-2.182-2.55-3.048-.275-.238-.677.156-.402.402 1.057.945 1.855 2.066 2.724 3.169-.132.305-.26.6-.389.871a28 28 0 0 1-.794 1.543c-.603-1.007-1.47-1.879-2.21-2.768-.367-.441-1.16.159-.804.62.785 1.016 1.514 2.196 2.512 3.032-.74 1.268-1.538 2.504-2.304 3.761-2.536 4.172-4.972 8.413-7.455 12.62" fill="#5096B2" data-color="1"></path>
        <path d="M82.685 66.863c-.896-3.887-1.831-7.764-2.745-11.646-.923-3.918-2.354-7.597-3.458-11.45-.01-.035-.063-.021-.055.015.892 3.912 1.415 7.832 2.498 11.714 1.071 3.839 2.122 7.683 3.211 11.518.101.352.631.205.549-.151" fill="#5096B2" data-color="1"></path>
        <path d="M89.914 101.215c.452 2.65.756 5.313 1.336 7.94.047.214.42.172.391-.053-.674-5.191-2.025-10.36-3.052-15.496a258 258 0 0 0-3.708-15.992c-.047-.177-.316-.102-.274.076a1586 1586 0 0 1 3.649 15.661c.59 2.609 1.208 5.227 1.658 7.864" fill="#5096B2" data-color="1"></path>
        <path d="M75.135 124.667c-.45-1.454-.915-2.904-1.424-4.342a80 80 0 0 0-1.336-3.447c.432 1.167.838 2.337 1.25 3.47a145 145 0 0 1 1.51 4.319" fill="#5096B2" data-color="1"></path>
        <path d="M71.308 114.199c.344.896.706 1.787 1.068 2.679a54 54 0 0 0-1.068-2.679" fill="#5096B2" data-color="1"></path>
        <path d="M52.662 73.863c-.753-1.367-1.493-2.741-2.296-4.08-.759-1.265-1.473-2.623-2.451-3.737-.539-.614-1.88-1.633-2.666-.648-1.586 1.989 1.143 5.475 2.157 7.275.817 1.45 1.652 2.917 2.547 4.321.812 1.273 1.879 2.34 2.688 3.618 1.585 2.504 3.038 5.108 4.521 7.674 1.489 2.576 3.401 4.903 4.85 7.481 2.902 5.163 5.105 10.691 8.019 15.829.47.83.888 1.706 1.277 2.603a41 41 0 0 1-.957-2.738c-1.73-5.674-4.829-10.91-7.426-16.227-1.407-2.881-2.417-5.899-3.94-8.749-1.392-2.606-2.982-5.167-4.228-7.844-.747-1.603-1.234-3.216-2.095-4.778" fill="#5096B2" data-color="1"></path>
        <path d="m76.566 129.383-.303-1.003q.139.505.269 1.012c.006.022.04.012.034-.009" fill="#5096B2" data-color="1"></path>
        <path d="M75.135 124.667c.382 1.235.755 2.474 1.128 3.714a76 76 0 0 0-1.128-3.714" fill="#5096B2" data-color="1"></path>
        <path d="M127.106 142.066c3.215-3.731 6.748-7.175 9.735-11.097 3.181-4.177 6.451-8.163 9.993-12.039 3.405-3.727 6.438-7.762 9.668-11.622a710 710 0 0 1 4.887-5.776c1.591-1.859 3.841-3.829 4.432-6.277.012-.049.017-.1.025-.15 1.738-.853 3.319-2.523 4.663-3.612.499-.405.712-1.306.503-1.9-.181-.515-.396-.917-.899-1.167-.799-.398-1.712-.325-2.37.305-1.183 1.133-2.851 2.39-3.882 3.878a1.7 1.7 0 0 0-.558.13c-2.411 1.006-3.9 3.226-5.522 5.189a709 709 0 0 0-4.796 5.867c-3.233 3.999-6.561 7.903-9.481 12.158-2.853 4.156-5.703 8.257-8.704 12.31-3.135 4.235-5.554 8.864-8.23 13.39-.192.324.278.713.536.413" fill="#5096B2" data-color="1"></path>
        <path d="M175.119 105.346c.09-.437-.123-.989-.616-1.083-2.32-.443-4.44 1.741-6.187 3.006-2.053 1.487-4.063 3.023-6.001 4.656-4.069 3.43-7.539 7.458-10.947 11.536a.37.37 0 0 0 .523.522c3.932-3.317 8.133-6.261 12.185-9.42a243 243 0 0 1 6.142-4.657c1.626-1.186 4.459-2.416 4.901-4.56" fill="#5096B2" data-color="1"></path>
        <path d="M68.035 128.046c.674.76 1.512 1.353 2.176 2.116.571.657 1.036 1.441 1.521 2.162q1.288 1.917 2.558 3.844c1.936 2.936 3.675 5.985 5.428 9.033.091.158.337.016.246-.143-1.752-3.047-3.555-6.06-5.212-9.159-.828-1.55-1.678-3.088-2.5-4.641-.854-1.614-1.303-3.273-1.94-4.967-.634-1.687-1.096-3.361-1.888-4.997-.771-1.591-1.693-3.064-2.631-4.561-1.803-2.877-3.56-5.81-5.504-8.595-3.944-5.65-8.443-10.797-12.728-16.178-2.046-2.569-3.685-5.451-5.855-7.927-1.228-1.401-3.625-4.322-5.753-3.411-.188.08-.219.309-.196.481.165 1.211 1.402 1.915 2.221 2.709 1.131 1.095 2.094 2.339 3.032 3.599 1.91 2.564 3.772 5.156 5.351 7.935 3.24 5.702 6.417 11.495 10.046 16.963a870 870 0 0 1 5.434 8.256c.956 1.476 1.954 2.892 3.077 4.248.97 1.167 2.116 2.103 3.117 3.233" fill="#5096B2" data-color="1"></path>
        <path d="M96.051 148.495c-.594-5.006-1.042-10-1.516-15.015-.458-4.85-1.004-9.635-1.953-14.415-.068-.344-.633-.268-.614.083.512 9.856 2.58 19.57 3.855 29.347.019.142.246.146.228 0" fill="#5096B2" data-color="1"></path>
        <path d="M90.488 148.559c.027.122.24.098.223-.03-1.284-10.103-4.58-19.755-8.187-29.232-.14-.369-.727-.224-.603.166 3.049 9.644 6.361 19.212 8.567 29.096" fill="#5096B2" data-color="1"></path>
        <path d="M116.354 116.396c.091-.891-1.175-1.088-1.59-.43-3.048 4.837-4.025 10.97-5.079 16.534-1.082 5.709-1.326 11.426-1.673 17.213-.027.446.63.424.683 0 .712-5.798 2.209-11.508 3.586-17.179 1.305-5.38 3.511-10.635 4.073-16.138" fill="#5096B2" data-color="1"></path>
        <path d="M94.938 163.528c1.787 1.189 4.054 1.644 6.19 1.244 2.058-.385 3.715-1.672 5.325-2.923 1.805-1.404 3.919-2.743 5.164-4.694.959-1.503-.677-3.998-2.496-3.243-3.322 1.38-5.192 4.896-8.412 6.348-1.471.663-3.344.107-4.89.024-1.621-.087-3.054-1.47-4.673-.962-.367.115-.556.467-.477.838.396 1.859 2.861 2.432 4.269 3.368" fill="#5096B2" data-color="1"></path>
        <path d="M119.335 149.474a2.4 2.4 0 0 0-1.205-.326 1.8 1.8 0 0 0-.92.205q-.444.144-.768.493a1.8 1.8 0 0 0-.494.768q-.225.426-.206.919l.085.634q.17.606.614 1.052l.483.373q.559.324 1.205.326.493.018.92-.205a1.8 1.8 0 0 0 .768-.493q.349-.324.494-.768.224-.426.206-.919l-.085-.634a2.4 2.4 0 0 0-.614-1.052z" fill="#5096B2" data-color="1"></path>
        <path d="M64.891 56.028c.62-.512 1.327-.85 2-1.275.781-.493 1.166-1.101 1.77-1.751.324-.349.123-1.064-.422-1.018-1.172.098-2.005.072-3.08.704a12 12 0 0 0-2.382 1.815q-.315.314-.589.642a8.5 8.5 0 0 0-.901-1.517c-.77-1.017-1.024-2.001-2.14-2.72-.868-.56-1.966.016-2.256.917-.366 1.136.08 1.778.176 2.886.1 1.151.163 2.153.535 3.305.724 2.241 1.582 4.435 2.326 6.668 1.519 4.562 2.897 9.322 5.623 13.33 1.298 1.909 2.071 4.227 3.007 6.339.957 2.159 2.523 3.908 3.471 6.078.979 2.241 1.857 4.585 3.009 6.743 1.153 2.16 2.387 4.285 3.466 6.485.028.057.126.017.104-.044-.847-2.298-1.53-4.66-2.248-6.998-.653-2.126-1.603-4.194-2.399-6.271-.45-1.176-.864-2.275-1.068-3.521-.202-1.234-.389-2.414-.797-3.598-.753-2.182-1.861-4.423-2.204-6.708-.604-4.036-2.18-7.768-3.757-11.504.94-.695 1.924-1.328 2.864-2.027.285-.212.135-.757-.263-.623-1.123.378-2.098.986-2.995 1.715q-.188-.447-.373-.894a95 95 0 0 1-.689-1.719c.504-.38 1.055-.71 1.634-1.05 1.082-.636 2.361-.762 3.468-1.359.477-.257.405-.904 0-1.177-1.551-1.047-3.583-.31-4.966.714a4.6 4.6 0 0 0-.899.885q-.31-.816-.623-1.629c.461-.683.99-1.32 1.598-1.823" fill="#5096B2" data-color="1"></path>
        <path d="M120.351 44.733c2.599-.709 4.66.7 7.003 1.539.242.087.427-.17.385-.384a3.6 3.6 0 0 0-.454-1.182c.31.057.621.056.931-.038a.55.55 0 0 0 .397-.52c-.025-1.623-2.054-2.31-3.348-2.777-1.788-.645-3.669-.548-5.504-.16-.393.083-.421.761 0 .822.926.134 1.823.365 2.706.648a7.9 7.9 0 0 0-2.539.519c-.929.368-.591 1.81.423 1.533" fill="#5096B2" data-color="1"></path>
        <path d="M123.317 49.576c-.355-.057-.514.478-.151.548a6.8 6.8 0 0 1 1.798.595c.526.267.955.692 1.478.945.231.112.568-.136.389-.389-.717-1.014-2.346-1.512-3.514-1.699" fill="#5096B2" data-color="1"></path>
        <path d="M34.507 90.112c.444-.634-.405-1.347-1.012-1.01-1.34.745-2.236 1.803-3.037 3.103-.703 1.141-1.556 2.567-1.034 3.927.172.449.628.551.998.263.996-.773 1.24-2.077 1.854-3.128.647-1.108 1.495-2.106 2.231-3.155" fill="#5096B2" data-color="1"></path>
        <path d="M32.582 98.538c.378-.99.871-1.927 1.49-2.788.562-.781 1.441-1.417 1.855-2.28.221-.461-.217-.848-.661-.661-.946.399-1.616 1.545-2.124 2.397a13 13 0 0 0-1.327 3.12c-.145.502.587.681.767.212" fill="#5096B2" data-color="1"></path>
        <path d="M34.579 101.036c1.267-2.378 2.935-4.774 4.626-6.867.315-.39-.096-1.097-.586-.758-2.649 1.831-4.115 4.155-4.715 7.341-.073.388.466.677.675.284" fill="#5096B2" data-color="1"></path>
        <path d="M143.691 135.814c.861-.232 1.518-.803 2.225-1.341 1.071-.815 2.137-1.613 3.272-2.338 2.115-1.352 4.421-2.461 6.611-3.7 2.287-1.294 4.551-2.627 6.866-3.872 2.281-1.227 4.841-2.183 7.003-3.592.522-.34.733-.893.609-1.494-.05-.243-.19-.393-.341-.584-.279-.353-.879-.462-1.289-.34-2.569.762-5.027 2.365-7.338 3.694a141 141 0 0 0-7.003 4.288c-2.201 1.443-4.333 2.954-6.476 4.479-1.554 1.106-3.979 2.54-4.421 4.52-.035.167.109.326.282.28" fill="#5096B2" data-color="1"></path>
        <path d="M61.916 134.7c-1.483.306-2.541 1.062-3.256 2.409-.645 1.216-.924 2.775.068 3.872.262.29.856.243 1.027-.132.384-.844.457-1.772.802-2.636.343-.861 1.083-1.842 1.84-2.371.581-.405.231-1.289-.481-1.142" fill="#5096B2" data-color="1"></path>
        <path d="M62.912 142.759c.744-.213.826-.969 1.076-1.593a5.5 5.5 0 0 1 1.059-1.649c.63-.687-.305-1.571-1.005-1.004-.884.715-2.97 2.899-1.821 4.064a.71.71 0 0 0 .691.182" fill="#5096B2" data-color="1"></path>
        <path d="M102.087 130.145c1.008-.159 2.037-.206 3.055-.265.892-.052 1.705-.079 2.252-.864.148-.212.14-.561 0-.774-1.135-1.729-4.313-.456-5.79.151-1.083.444-.686 1.937.483 1.752" fill="#5096B2" data-color="1"></path>
        <path d="M107.036 125.909c.022 0 .022-.035 0-.035s-.022.035 0 .035" fill="#5096B2" data-color="1"></path>
    </g>
</svg>