<svg preserveAspectRatio="xMidYMid meet" data-bbox="9 65 182 70" viewBox="9 65 182 70" height="200" width="200" xmlns="http://www.w3.org/2000/svg" data-type="color" role="presentation" aria-hidden="true" aria-label=""><defs><style>#comp-ml1h0i0a svg [data-color="1"] {fill: #E6C404;}</style></defs>
    <g>
        <path d="M189.292 71.525c-.615-1.934-1.817-3.578-3.689-4.253-2.127-.767-4.411-1.364-6.656-1.481-7.618-.396-15.247-.616-22.875-.766-4.203-.083-8.412.059-12.615.195-2.533.082-5.057.457-7.588.511-5.068.109-10.14.023-15.207.147-2.531.062-5.052.462-7.583.618-4.376.27-8.764.373-13.133.725-5.258.424-10.51.477-15.764.118-5.402-.369-10.794-1.132-16.197-1.21-7.706-.111-15.423.16-23.129.435-4.629.165-9.249.624-13.868 1.005-1.309.108-2.633.296-3.897.641a30.509 30.509 0 0 1-9.106 1.074c-.785-.026-1.778.321-2.35.85-1.844 1.705-3.09 3.725-3.015 6.434.25 9.023-1.62 17.836-2.728 26.726-.342 2.746-1.652 5.511-.099 8.318.156.282-.21.824-.258 1.255-.204 1.831-.525 3.665-.535 5.499-.02 3.679 2.993 7.085 6.2 7.478 4.783.586 9.541 1.369 14.325 1.945 3.308.399 6.64.6 9.963.871 4.991.407 9.977.943 14.977 1.16 6.588.285 13.156.595 19.622 2.038 1.539.343 3.116.589 4.688.706 7.352.548 14.705 1.074 22.063 1.531 4.534.281 9.095.246 13.609.7 2.455.246 4.822.326 7.248-.073a39.417 39.417 0 0 1 5.495-.528c3.602-.08 7.207-.024 9.422-.024 8.324-.417 15.262-.713 22.192-1.131 4.734-.285 9.467-.654 14.183-1.149 3.475-.364 6.561-1.723 9.262-4.057 4.761-4.113 6.851-9.432 7.205-15.532.254-4.374.296-8.76.441-13.141.075-2.27.143-4.541.261-6.81.082-1.571.276-3.136.359-4.707.06-1.141-.192-2.337.061-3.423 1.025-4.399.031-8.56-1.284-12.695zm-1.401 2.706c-1.184-.522-2.115-1.144-3.127-1.339-3.367-.651-6.713-.915-10.159-.075-4.586 1.117-9.227 2.209-13.907 2.68-4.44.446-8.88-.256-13.042-2.233-1.565-.743-3.346-1.017-5-1.586-.688-.237-1.324-.63-1.975-.976 1.707.346 3.423.643 5.101 1.082 3.38.885 6.652 2.306 10.256 2.021.865-.068 1.742-.164 2.579-.379 4.764-1.223 9.556-2.524 14.482-2.508 4.096.013 8.201.603 12.277 1.131.909.117 2.383.178 2.515 2.182zm-40.089-7.754h24.015l-.02.089c-3.673.414-7.348.811-11.019 1.248-4.396.523-8.704-.039-13.002-.793.01-.182.018-.363.026-.544zm-25.804.626c2.854 0 5.71.058 8.562-.015 3.421-.087 6.838-.319 10.259-.416.941-.027 1.969.003 2.822.344 6.382 2.552 12.966 2.973 19.686 1.998 5.601-.812 11.22-.582 16.842-.442.701.017 1.404-.043 2.105-.025 1.161.03 2.261.229 3.194 1.555-.66 0-1.108.023-1.553-.004-3.326-.201-6.664-.692-9.974-.542-3.392.153-6.762.89-10.128 1.45-2.329.387-4.621 1.013-6.956 1.344-2.949.418-5.758-.413-8.509-1.373-8.218-2.867-16.617-4.352-25.344-3.453-.33.034-.673-.052-1.009-.082l.003-.339zm5.292 1.752c2.185.079 4.397-.077 6.55.22 2.096.289 4.141.947 6.204 1.476-1.859-.168-3.727-.275-5.567-.564-2.469-.388-4.872-.233-7.327.179-1.877.315-3.826.377-5.731.294-3.271-.142-6.46-.052-9.515 1.345-.546.25-1.302.035-1.973-.159 5.61-2.138 11.398-3.005 17.359-2.791zM94.702 81.596l-.02-.519 5.152-1.048c-2.117 1.774-2.117 1.774-5.132 1.567zm3.402 4.28c-1.081.33-1.617-.244-2.351-1.26 1.473-.362 1.879.399 2.351 1.26zm-28.761-.086c-2.12.463-4.172 1.365-6.161 2.274-1.606.734-3.187.546-4.841.398 4.826-1.794 9.443-4.18 14.682-4.566 2.232-.164 4.368.096 6.391 1.174 1.212.646 2.52 1.111 3.785 1.657l-.139.516c-1.03-.226-2.109-.325-3.081-.702-3.481-1.35-7.068-1.53-10.636-.751zm6.921 1.761l-8.008.527c2.583-1.48 5.272-1.353 8.008-.527zm-33.531-2.474c-1.521-.884-3.087-1.166-4.786-1.104-1.006.037-2.098.244-2.909-1.321 1.186-.028 2.215-.24 3.152-.033 1.702.376 3.442.808 5.004 1.556 6.546 3.137 13.025 2.969 19.583.058 1.998-.887 4.104-1.554 6.199-2.194 2.833-.866 4.152-.757 7.14.411-5.553.051-10.422 1.577-15.261 3.397-4.447 1.673-9.145 1.645-13.784 1.046-1.505-.194-2.987-1.03-4.338-1.816zm1.645 2.809c-2.11.125-3.936-.489-5.909-2.356 2.739-.035 4.161 1.543 5.909 2.356zm-7.791-14.869c-1.288.188-2.214-.339-3.101-1.122 5.138-.336 10.195-.252 15.087 1.722-.623 0-1.282.133-1.863-.022a24.871 24.871 0 0 0-10.123-.578zm6.675 1.491l-.146.407-3.764-.666.042-.302 3.868.561zm-9.494-.416c1.842.787 3.798 1.328 5.734 1.867 3.146.877 6.234.681 9.275-.6 5.115-2.155 10.377-2.402 15.722-.98 1.232.328 2.612.51 2.784 1.72l5.327 1.329c-1.637 1.092-2.833.837-3.91.438-4.938-1.827-9.998-1.502-15.077-.997-2.269.226-4.548.387-6.803.712-3.677.53-7.099-.247-10.576-1.425-3.129-1.061-6.415-1.738-9.682-2.279-1.572-.26-3.259.181-4.894.304l-.27-.369c.765-.308 1.506-.788 2.298-.895 3.445-.462 6.806-.22 10.072 1.175zm25.429-4.095h10.358c-3.335 1.055-6.807 1.653-10.358 0zm46.498 5.92c-5.209-.105-10.361.372-15.327 1.985-1.573.511-2.957 1.608-4.725 2.604l-4.825-1.587 1.729-1.203.561 1.399c9.814-3.711 20.327-5.108 25.525-3.197-1.256.002-2.097.016-2.938-.001zm.472 2.109c-.785.186-1.563.468-2.358.537-1.828.159-3.707.003-5.487.365-2.115.43-4.268 1.029-6.18 2.001-1.756.893-3.254.955-5.064.02 1.368-1.32 3.096-1.845 4.717-2.14 4.024-.734 8.102-1.175 12.167-1.662.704-.084 1.451.18 2.177.283l.028.596zm-31.043-1.172c1.787-.882 3.967-1.184 7.764-1.076-2.492 1.903-4.999 1.986-7.764 1.076zm31.318-3.036c-2.066-.161-4.161-.1-6.233.026-2.09.127-4.187.347-6.246.722-2.036.371-4.027.985-6.038 1.493 5.178-3.608 19.64-4.402 24.359-1.276-1.947-.335-3.882-.812-5.842-.965zm-21.337.253c-2.866-.122-5.764.313-8.635.631-.737.082-1.571.456-2.104.965-.977.934-1.719.334-2.657.003 2.534-2.331 14.445-4.103 18.605-2.737-1.795.982-3.372 1.216-5.209 1.138zM50.54 80.169c-2.28.581-4.613 1.157-6.875-.139-.132-.075-.202-.259-.445-.587 7.661-.919 15.164-2.378 22.781-.854l-.012.687c-.911.047-1.849.257-2.728.113-4.31-.707-8.521-.29-12.721.78zm10.216.427c-3.689 1.859-5.692 2.153-10.303 1.655 1.963-1.284 6.676-2.102 10.303-1.655zm-25.378-3.209l-.104.646c-.867-.13-1.733-.266-2.601-.387-1.886-.263-3.767-.618-5.662-.742-1.228-.08-2.007-.707-2.773-1.601 3.876-.005 7.601.593 11.14 2.084zm5.149 3.18c1.422.678 2.937 1.155 4.382 1.788 1.149.503 2.299.87 3.449 1.148.158-.097.339-.168.573-.168.418 0 .707.193.892.457 3.637.588 7.286.14 10.963-1.188a48.27 48.27 0 0 1 6.198-1.758c-4.496 2.18-9.002 4.302-14.15 4.235-.962-.012-1.9-.121-2.825-.287-.104.449-.44.829-1.039.829-.814 0-1.174-.697-1.099-1.323-1.322-.37-2.622-.835-3.914-1.332a52.042 52.042 0 0 1-2.667-1.099c-2.329-1.046-4.727-1.329-7.143-.455-1.349.487-2.148-.059-3.233-1.428 3.533-.485 6.6-.857 9.613.581zm42.44 4.33l.102-.501 3.265.646-.222.624-3.145-.769zm-6.757-4.059c-1.46-.662-3.208-.686-4.697-.977 3.561-.452 7.141-.25 10.695 1.189 3.481 1.41 7.05 2.734 11.498 2.186-1.648 1.357-3.023 1.495-4.38 1.234-4.464-.858-8.915-1.729-13.116-3.632zm18.753 5.316c-1.232 2.436-3.356.592-4.851 1.232 1.471-.82 2.745-2.638 4.851-1.232zm7.169-1.001c-1.949.454-1.949.454-3.711-2.102 1.941.03 2.507 1.344 3.711 2.102zm-.814-3.301l3.426-1.455 4.799 5.275-.406.574c-3.354.103-5.997-1.173-7.819-4.394zm4.969-2.025c.611-.298 1.194-.599 1.791-.868.555-.251 1.125-.468 1.706-.708l7.71 8.013c-1.415-.242-2.604-.652-3.77-.596-1.661.081-2.845-.483-3.861-1.734-1.1-1.356-2.291-2.639-3.576-4.107zm5.247-2.373l3.134-1.176 12.306 10.836-.102.515c-1.402-.089-2.847-.434-4.195-.205-1.878.319-2.735-.938-3.717-1.953-2.495-2.58-4.885-5.259-7.426-8.017zm2.026-4.69l5.045-.953.126.298c-.51.24-1.012.5-1.533.714-.567.232-1.155.413-1.729.63-.673.255-1.349.556-1.909-.689zm2.611 3.022c.715-.433 1.239-.692 1.696-1.039 1.037-.785 1.996-.535 2.852.232 4.437 3.975 8.854 7.973 13.268 11.974.094.085.067.305.098.472-2.539.514-4.615-.099-6.596-1.931-3.588-3.321-7.413-6.385-11.318-9.708zm4.929-2.246c1.84-1.163 3.591-1.39 5.045-.166a401.286 401.286 0 0 1 13.445 11.795c1.384 1.273 2.342 3.012 3.663 4.76-1.642-.551-2.866-.933-4.068-1.377-.561-.207-1.158-.439-1.602-.819-5.458-4.671-10.891-9.37-16.483-14.193zm-24.293-4.534c4.52-.477 9.034-1.038 13.565-1.376 2.634-.197 5.295-.036 7.944-.036-11.948 3.06-11.967 3.591-21.586 1.82-.017-.063-.06-.133-.046-.188.019-.081.073-.214.123-.22zm2.216 2.509c-1.616.493-2.952.939-4.404.117-.505-.286-1.169-.385-1.765-.4-7.564-.192-15.111-.193-22.262 2.849-1.252.533-2.382.422-3.579-.542 6.632-3.56 18.963-5.191 32.01-2.024zm-21.512-2.466c-1.146 0-2.033.14-2.862-.022-6.093-1.191-12.223-.736-18.32-.277-2.47.186-4.848.607-7.328-.513 4.136-1.51 25.383-.955 28.51.812zm-58.802 1.816c2.843-.412 5.694-.762 8.541-1.148 1.473-.199 2.937-.524 4.416-.618 5.872-.371 11.74-.514 17.521.918 2.446.606 4.893 1.205 7.763 1.912-2.902.584-5.294.459-7.754-.175-6.793-1.753-13.658-2.123-20.572-.646-.672.144-1.403-.008-2.088.097-1.627.249-3.263.486-4.857.882-1.718.428-3.392.659-5.083.077l-.188-.699c.766-.204 1.521-.486 2.301-.6zm.204 3.478c-1.372 1.118-2.741.749-4.148.442.551-1.684 1.074-1.738 4.148-.442zm-.629 3.298c-2.753.991-3.388.82-3.603-1.294 1.345.516 2.873-.424 3.603 1.294zm.681 2.659c-1.647 1.24-2.956 1.263-4.613.079 1.573-.862 3.01-.862 4.613-.079zm.644 2.425c-1.277 1.654-2.695.929-4.109.28l4.109-.28zm-5.474 2.615c.258-.106.407-.22.558-.221 1.641-.013 3.284.041 4.923-.023 1.447-.057 1.47-.09 1.825 1.763-2.373.704-4.746.847-7.305.028V85.34zm.588 3.503c2.236-.136 4.482-.078 6.721-.18 1.259-.058 1.722.485 1.712 1.824-2.876 1.063-5.801.948-8.717.62-.361-.041-.904-.859-.873-1.281.026-.368.726-.956 1.157-.983zm9.707 3.547c-1.569 2.024-8.646 2.675-11.731.784l11.731-.784zm-11.852 3.773l8.624-.515c-.958 1.426-.957 1.469-4.155 1.585-1.495.054-2.998-.092-4.497-.148l.028-.922zm.48 2.669c1.529-.002 3.058-.001 4.835-.001-1.329 1.308-3.294 1.659-5.854 1.249-.325-.958.172-1.246 1.019-1.248zm2.376 3.22c-2.022 1.087-2.022 1.087-3.922.524 1.347-1.007 2.73-.327 3.922-.524zm-2.029 2.557l.088.397-1.866.541-.14-.635 1.918-.303zm-1.952 2.812c.005-.015.272.058.417.09l-.293 1.155-.445-.117c.101-.379.197-.758.321-1.128zm-.412 11.623l-.051-.408c1.025-.394 2.113-.675 3.061-1.206 2.295-1.284 4.677-2.486 6.749-4.081 3.833-2.95 8.159-4.817 12.682-6.243 6.157-1.941 12.452-2.346 18.703-.515 5.363 1.571 10.69 3.311 15.59 6.347-2.03.341-2.834.122-5.497-.75-3.566-1.169-7.137-2.419-10.801-3.163-2.544-.516-5.249-.264-7.882-.307-8.917-.148-16.864 2.82-24.146 7.747-2.248 1.521-4.619 2.517-7.3 2.777-.36.035-.738-.128-1.108-.198zm65.448-2.007c-.979.05-1.986.273-2.933.12-4.577-.742-9.166-1.448-13.694-2.433-4.175-.908-8.259-2.225-12.415-3.227-3.39-.817-6.801-.192-10.197.184-4.441.491-8.393 2.234-12.289 4.351-2.374 1.29-4.597 3.089-7.459 3.325 4.787-3.663 9.997-6.413 15.826-8.137 6.232-1.844 12.496-1.857 18.764-.863 3.077.488 6.049 1.731 9.023 2.764 3.999 1.389 8.044 2.432 12.307 2.564 1.053.033 2.093.493 3.139.757l-.072.595zm2.394 1.149c2.749-.088 4.853 1.638 7.27 2.778-.757.099-1.518.301-2.271.279-6.862-.202-13.579-1.105-20.194-3.165-5.337-1.662-10.827-3.022-16.519-2.88-4.205.105-8.417.159-12.61.46-1.9.136-3.764.8-5.638 1.252-1.171.282-2.33.615-3.494.925l-.239-.554c1.341-.767 2.603-1.755 4.035-2.265 7.814-2.782 15.7-3.336 23.754-.82 8.419 2.63 17.024 4.275 25.906 3.99zm-61.739 1.316l-1.603 1.015-.241-.535 1.844-.48zm-2.705 3.469c-.252.019-.51-.044-.859-.407 2.397-.697 4.792-1.397 7.19-2.09 1.768-.511 3.54-1.008 5.308-1.522 4.215-1.224 8.396-2.5 12.891-2.308 3.487.148 7.041-.42 10.47.041 4.929.663 9.811 1.819 14.643 3.044 6.751 1.712 13.541 2.975 20.527 2.868 1.393-.021 2.779-.404 4.175-.46.867-.035 1.747.233 2.621.365l-.045.58c-4.5.441-8.965 1.389-13.541.716-4.243-.624-8.522-1.069-12.718-1.923-3.249-.661-6.428-1.729-9.578-2.796-4.975-1.684-10.098-2.335-15.274-1.926-3.022.239-6.112.893-8.947 1.96-5.474 2.061-11.051 3.412-16.863 3.858zm3.606 1.201c.471-.153.935-.336 1.415-.456 2.803-.695 5.629-1.308 8.411-2.079 3.045-.844 6.008-2.016 9.083-2.712 5.81-1.317 11.533-.366 17.19 1.15 7.211 1.932 14.39 4.089 21.841 4.836 3.563.357 7.205.251 10.786-.002 2.481-.175 5.083.161 7.453-1.214.536-.311 1.635.35 2.475.563l.031.549c-3.241 1.554-6.687 2.337-10.28 2.616-8.24.64-16.243-.421-24.172-2.785-5.445-1.623-10.862-3.531-16.651-3.768-4.87-.199-9.655.131-14.338 1.575-2.265.698-4.57 1.266-6.831 1.975-2.145.674-4.244.355-6.413-.248zm17.316 2.324c6.492-1.555 17.85-.738 22.893 1.647-2.866.617-18.639-.517-22.893-1.647zm76.316 7.038l-.002-.164h2.185l.002.164h-2.185zm6.887-.618c-2.902-1.225-5.831-1.661-8.951-.732-1.91.568-3.914.887-5.899 1.117-1.511.175-3.059.035-4.59.035l-.017-.548c8.53-3.066 18.266-2.772 23.495.105-1.377.776-2.701.588-4.038.023zm13.74-.014c-1.472.082-2.959.253-4.415.118-1.103-.102-2.238-.477-3.238-.976-5.525-2.758-11.221-3.275-17.015-2.543-1.508.392-2.983.671-4.35.763l-.148.031c-2.732.614-5.43 1.38-8.163 1.991-.926.207-1.914.23-2.868.192-1.315-.053-2.624-.244-4.28-.41 3.435-.876 6.517-1.759 9.647-2.408.457-.095.937-.075 1.422-.03a4.82 4.82 0 0 1-1.035-.667 1.159 1.159 0 0 1-.674-.236c-3.986.657-7.859 1.461-11.768 1.811-8.43.756-16.628-.754-24.604-3.39-8.151-2.694-16.455-3.531-24.942-2.501-1.981.241-3.917.889-5.858 1.41-1.214.326-1.886.304-3.772-.451 9.3-3.9 18.673-4.44 28.304-1.726 6.33 1.784 12.581 4.02 19.164 4.677 7.089.708 14.206 1.07 21.096-1.476.617-.228 1.284-.399 1.989-.581.018-.03.032-.062.052-.09.025-1.151.064-2.301.122-3.449-1.456-.43-2.87-.83-4.229-1.367-7.752-3.065-15.496-6.152-23.201-9.332-2.999-1.238-5.84-2.858-8.837-4.102-7.603-3.156-15.475-4.667-23.678-3.073-3.342.649-6.521 1.847-9.696 3.2-4.425 1.886-7.99 5.083-12.228 7.18-1.219.603-2.558.963-3.842 1.434l-.289-.538c.409-.3.8-.63 1.23-.896 1.86-1.152 3.771-2.226 5.59-3.437 3.144-2.095 6.15-4.41 9.37-6.375 3.431-2.093 7.353-2.804 11.297-3.286 6.301-.77 12.229.783 17.972 3.117 6.749 2.744 13.363 5.824 20.146 8.478 6.757 2.644 13.637 4.97 20.481 7.387.074-1.193.159-2.386.254-3.578l-.183.496-2.478-1.069.171-.485 2.509.813c.072-.883.149-1.767.227-2.65-.166-.867-.126-1.753-.049-2.62.186-2.093-.597-3.801-1.662-5.441-1.194-1.839-2.885-1.828-3.841.136-.516 1.061-.622 2.355-.758 3.562-.226 2.012-.174 2.018-2.398 2.73-1.238-1.356-1.632-3.056-1.899-4.807-.118-.78-.18-1.571-.355-2.338-.241-1.06-1.074-1.901-2.012-1.727-.777.145-1.407 1.124-2.078 1.759-.103.097-.081.335-.101.509-.112.991-.257 1.966-1.45 2.245-1.254.293-2.006-.542-2.628-1.369-.627-.833-1.053-1.819-1.555-2.745-.496-.914-.976-1.836-1.65-3.105-.87.691-1.601 1.122-2.126 1.731-.539.624-.877 1.421-1.511 2.495-.889-1.075-1.554-1.843-2.178-2.643-.593-.761-1.074-1.621-1.725-2.325-1.596-1.726-2.284-1.554-3.317.712-.105.232-.289.428-.644.941-2.202-.867-4.488-1.685-6.699-2.674-.983-.44-1.538-1.329-1.609-2.541-.05-.851-.355-1.732-.733-2.509-.789-1.621-2.317-1.771-3.24-.21-.582.983-.674 2.257-1.059 3.667-.921-.126-2.094-.084-3.115-.458-6.441-2.363-12.443-1.217-18.218 2.085-.304.174-.619.33-.933.488-.077.039-.168.049-.253.073-2.607-1.306-3.864-1.116-4.696 1.367-1.31 3.904-4.669 5.211-7.814 6.944.702-3.29 2.698-5.773 5.153-7.787 2.484-2.038 5.261-3.717 8.019-5.628.634-2.269-1.95-3.423-2.29-5.334.559-.883 1.363-1.619 1.438-2.422.077-.834-.552-1.734-.922-2.741l-2.731 1.118c-1.76-2.596-2.438-5.405-2.362-8.965 2.186 1.28 4.166 2.305 6.002 3.544 3.71 2.502 7.588 4.778 10.78 7.997 1.625 1.639 3.708 2.209 5.999 2.292 4.548.164 9.093.434 13.826.67.487 1.391 1.045 2.818 3.197 2.494 2.158-.325 2.902-1.704 3.113-3.697 3.105-.157 6.026-.815 8.96-.004.406 1.076.692 2.087 1.16 3.005.476.934 1.305 1.375 2.415 1.204 1.053-.161 1.078-1.023 1.287-1.763.942-3.332.937-3.344 4.427-3.684 1.484-.145 2.974-.314 4.462-.322 1.864-.01 2.266.462 2.294 2.376.016 1.141-.126 2.295.003 3.42.183 1.601 1.082 2.388 2.339 2.301.926-.064 1.809-1.153 2.001-2.463.216-1.475.394-2.957.675-4.419a2.833 2.833 0 0 1 .711-1.381c.954-.968 6.391-1.582 7.646-.874.339.191.642.607.761.983.125.393-.065.876.011 1.296.19 1.049.409 2.249 1.715 2.336 1.209.08 2.085-.397 2.366-1.894.337-1.797 1.607-2.861 3.535-2.931.789-.029 1.581-.111 2.367-.07 2.689.137 3.28.886 2.97 3.725-.267 2.446-.617 4.884-.819 7.336-.077.931.095 1.901.27 2.831.216 1.15 1.009 1.561 2.53 1.32.414-1.487.983-3.123 1.306-4.806.329-1.713.421-3.472.605-5.213.248-2.349 1.38-3.553 3.339-3.532 2.365.025 2.623.302 2.587 2.77-.02 1.354.433 1.823 1.765 2.084 1.326.26 1.727-.581 1.994-1.566.136-.502.106-1.049.159-1.574.043-.432.098-.863.145-1.266 2.688-.758 6.404-.22 9.991 1.356.373 1.633.637 3.157 1.089 4.622.268.87.939 1.515 1.997 1.351 1.059-.164 1.765-.768 1.991-1.84.198-.939.351-1.887.548-2.966 2.633.038 4.806 1.111 7.346 1.971-.423 1.56-.833 2.951-1.177 4.358-1.444 5.911-2.475 11.896-2.676 17.981-.057 1.737-.608 2.611-2.796 2.949l.22-2.97c.063-.87.382-1.832.116-2.586-.289-.821-1.054-1.926-1.737-2.024-.644-.092-1.801.813-2.118 1.546-.756 1.749-1.291 3.627-1.655 5.504-.506 2.607-.678 2.946-3.255 3.078-1.196.061-2.403-.122-3.672-.199-.15-.829-.267-1.421-.362-2.016-.145-.909-.354-1.764-1.477-1.896-1.247-.146-1.999.477-2.398 1.605-.411 1.163-.806 2.331-1.212 3.496-.361 1.037-1.119 1.636-2.187 1.522a189.947 189.947 0 0 1-4.873-.602 1.202 1.202 0 0 1-.432.285c-1.692.652-4.781 2.121-8.245 3.466 2.842.117 5.685.677 8.514 1.642 3.815 1.301 7.56 2.743 11.651 3.403-.454.1-.896.265-1.345.29zM21.576 107.36c3.253-2.797 6.617-5.499 10.664-7.036 1.835-.697 3.954-.935 5.935-.9 8.48.15 16.712 1.633 24.767 4.443 5.85 2.042 11.208 5.01 16.702 7.75 3.374 1.683 6.797 3.264 10.195 4.898.621.298 1.225.629 1.688 1.384-2.14-.641-4.348-1.117-6.409-1.955-6.412-2.61-12.764-5.364-19.146-8.048-2.828-1.189-5.633-2.451-8.518-3.486-4.606-1.652-9.236-3.31-14.205-3.462-1.566-.048-3.186-.08-4.698.259-3.405.763-6.798 1.637-10.113 2.723-1.45.475-2.691 1.585-4.035 2.394-.85.511-1.714.999-2.571 1.497l-.256-.461zm124.603-18c2.265-.151 3.807.671 5.182 1.764-1.676-.49-3.523-.297-5.182-1.764zm12.163 5.469l20.59 8.693c-.39 1.73-1.465 2.618-2.639 3.376-5.167 3.339-10.342 6.663-16.295 8.504-1.31.405-2.555 1.024-4.471 1.807 0-2.177-.042-3.748.009-5.316.099-3.066-.004-6.17.458-9.184.392-2.558 1.464-5.012 2.348-7.88zm-1.214-2.175l4.719.239c-1.662 1.128-2.32 1.083-4.719-.239zm19.212 16.798l-.016-.57h6.321l.004.252-6.309.318zm10.205.948c-4.951 1.96-10.245 2.289-15.984 2.098 1.135-1.259 2.179-1.733 3.672-1.741 4.105-.022 8.21-.225 12.312-.357zm-33.53 3.301c.231 0 .604.364.65.61.044.237-.195.708-.406.777-.524.17-1.102.169-1.706.242-.264-1.48.586-1.631 1.462-1.629zm-1.36-1.516c.032-1.313.408-2.023 1.564-1.841.229.036.568.483.56.732-.043 1.409-1.159.901-2.124 1.109zm-.001 4.913c.566-.49 1.35-.785 2.336.222l-2.377 1.791c0-1.07-.204-1.802.041-2.013zm.349-8.155c.583-1.744.583-1.744 2.303-.613l-2.303.613zm.446-3.379c.429-.221.853-.452 1.298-.634.024-.01.215.39.328.6l-1.348.609c-.094-.192-.186-.384-.278-.575zm1.199-5.73l.658-1.692c.384 1.099.384 1.099-.658 1.692zm.47-3.908l2.026-.225c-.543 1.231-.543 1.231-2.026.225zm2.807-1.896c-.505-.046-1.153.091-1.486-.172-.9-.71-1.665-1.591-2.762-2.68l4.373 1.467c-.049.448-.087.916-.125 1.385zm-18.615 31.043h-1.487v-.195h1.435l.052.195zm2.309 7.257l5.14-1.45c-.759 1.649-1.288 1.793-5.14 1.45zm20.082-.733l.044-.444 6.686-.734.058.597-6.788.581zm13.46-1.579c-2.851-.178-5.71-.536-8.554-.445-4.103.131-8.197.539-12.163 1.797-1.391.441-2.876.582-4.319.86 7.628-3.755 17.096-4.847 26.677-3.005-.27.912-.941.836-1.641.793zm-13.946-3.374l8.221-.486.039.564-8.076.453-.184-.531zm11.415.519l.005-.215h2.9l-.005.215h-2.9zm4.905.239h3.344c-1.212 1.844-2.287.203-3.344 0zm5.955-2.54c-2.329.984-4.749 1.116-7.243.792-4.694-.611-9.412-1.456-14.135-.483-3.338.687-6.626 1.639-9.912 2.56-2.957.829-5.864 1.838-8.823 2.655-3.996 1.104-8.045.828-11.994-.145-3.309-.815-6.52-2.027-9.775-3.062l-2.556-.813c3.874.127 7.627.64 11.317 1.541 7.06 1.724 13.962 2.187 20.812-1.143 3.134-1.523 6.576-2.473 9.956-3.398 1.654-.453 3.5-.44 5.235-.311 3.054.226 6.093.682 9.133 1.082 2.449.322 4.877.495 7.29-.267.533-.168 1.129-.136 1.696-.196l.139.339c-.378.289-.716.671-1.14.849zm4.521-7.316c-.361 1.805-1.282 3.219-3.094 3.955-2.813 1.143-5.633 1.782-8.731 1.294-3.722-.587-7.485-1.06-11.244-1.199-2.047-.075-4.186.439-6.172 1.053a102.234 102.234 0 0 0-9.633 3.521c-5.098 2.155-10.291 1.875-15.541.958-1.272-.222-2.519-.593-3.77-1.381.823-.142 1.649-.41 2.47-.393a7.856 7.856 0 0 1 2.574.5c4.765 1.807 9.33.814 13.833-.937 3.105-1.208 6.133-2.628 9.272-3.732 3.922-1.38 7.964-2.05 12.167-1.528 2.874.357 5.78.454 8.667.72 2.167.199 4.193-.333 6.173-1.09 1.251-.479 1.389-.775 1.576-2.801-4.026 3.264-8.318 2.639-12.451 2.125-7.144-.888-14.006-.403-20.515 2.921-.541.276-1.153.415-1.737.6-.482.152-.972.278-1.496.272 5.765-3.891 12.044-6.212 19.035-6.294 2.811-.033 5.626.066 8.436.175 3.565.139 7.025-.187 10.486-2.266-.112 1.391-.095 2.482-.305 3.527zm-10.655-2.722c-2.53-.159-5.085.052-7.628.113-.927.022-1.854.09-2.804-.025 1.212-.915 2.411-1.579 4.042-1.306 5.477.915 10.827.179 16.083-1.473.332-.105.667-.215 1.009-.272.153-.025.327.076.859.218-3.767 2.315-7.52 2.999-11.561 2.745zm2.359-7.371c.088-1.291.626-1.963 1.511-1.724 2.385.642 4.671.12 6.987-.279.131-.023.294.133.716.341-2.883 2.514-6.161 1.047-9.214 1.662zm9.139-4.686c-.069 1.164-.629 1.774-1.825 1.767-1.75-.011-3.5-.003-5.291-.207 1.817-1.648 5.027.395 6.478-2.366h-8.091l-.06-.592c.843-.034 1.688-.041 2.528-.11 1.043-.086 2.111-.113 3.115-.372.88-.227 1.687-.74 2.469-1.368-5.301.465-10.519.754-15.628-1.158 2.093 0 4.187.031 6.28-.009 2.1-.039 4.209-.042 6.292-.264 1.356-.145 2.734-.552 3.607-2.159-.459-.092-.803-.282-1.034-.189-5.115 2.054-10.349 1.241-15.57.672-2.167-.236-4.325-.563-6.495-.755-1.079-.096-1.985-.375-2.941-1.402 4.419-.653 8.446-.131 12.471.678 2.828.568 5.656 1.359 8.582.69 1.985-.454 3.844-1.153 4.935-3.171-3.841 2.558-7.924 2.39-12.149 1.482-2.602-.559-5.254-.887-8.444-1.411 1.617-.762 2.499-1.347 4.018-.937 2.866.774 5.839 1.229 8.796 1.562 2.473.279 4.812-.337 6.936-2.175-2.605.319-4.962.852-7.313.828-2.415-.025-4.823-.594-7.566-.97.926-1.474 1.796-.988 2.673-.831 1.714.307 3.443.644 5.174.692 1.101.031 2.424-.138 3.279-.742 1.752-1.238 3.482-1.422 5.59-.59-.264 4.332-.545 8.869-.816 13.407zm-11.984-13.98c2.089-.924 2.089-.924 5.927-.301-1.82 1.181-3.717.858-5.927.301zm11.933-1.128c-2.775-.38-5.543-.82-8.323-1.152-2.632-.314-5.114.377-7.316 1.741-6.768 4.193-13.718 3.51-20.782 1.01-1.98-.701-3.937-1.483-5.947-2.084-2.517-.752-3.872-2.797-5.603-4.434l.396-.675c1.352.546 2.77.971 4.044 1.662 3.894 2.115 7.895 3.77 12.383 4.171 3.473.31 6.821.102 10.116-1.093 6.963-2.525 14.127-2.279 21.181-1.627.254.317.428.438.457.587.113.582.18 1.172.275 1.835-.389.03-.642.092-.881.059zm1.056-4.042c-3.421-.109-6.558-.237-9.697-.303-4.343-.092-8.601.484-12.682 2.005-3.93 1.464-7.893 1.387-11.928.618-3.052-.582-5.823-1.84-8.628-3.128-2.68-1.231-5.576-1.98-8.324-3.077-1.06-.423-1.972-1.22-2.952-1.847l.356-.879c1.577.437 3.192.772 4.721 1.339 1.807.67 3.569 1.48 5.297 2.337 3.663 1.817 7.53 2.842 11.562 3.451 2.864.433 5.611-.045 8.355-.588 3.613-.715 7.192-1.612 10.779-2.456 3.302-.777 6.584-.9 9.892.01.675.186 1.445.027 2.731.027-1.294-1.673-2.664-1.748-3.994-1.958-4.255-.674-8.36.148-12.474 1.118-3.837.905-7.686 1.809-11.574 2.439-3.738.605-7.339-.409-10.8-1.761-3.758-1.468-7.458-3.083-11.185-4.628-1.264-.524-2.559-.712-3.834-.083-1.264.623-1.929-.147-2.812-1.037 2.851-1.326 5.492-.706 8.027.184 2.475.869 4.886 1.955 7.246 3.107 8.018 3.914 16.141 3.587 24.29.612 4.596-1.678 9.139-2.334 13.889-.66.772.272 2.313 1.338 2.625-.268.257-1.322-1.394-.857-2.224-1.126-2.179-.706-4.38-1.487-6.7-1.134-2.584.394-5.269.657-7.673 1.59-4.963 1.926-10.074 2.502-15.265 2.146-2.4-.165-4.787-1.091-7.091-1.92-2.139-.77-4.194-1.802-6.224-2.84-3.57-1.826-7.264-2.478-11.21-1.579-1.695.386-1.707.336-3.487-1.269.906-.916 2.041-.78 3.112-.724 5.565.289 10.937 1.405 16.145 3.473 5.393 2.142 11.054 2.82 16.791 1.909 3.808-.605 7.549-1.633 11.333-2.405 3.773-.769 7.489-.772 11.024 1.083.611.321 1.308.478 2.07.748 1.492 2.396.748 4.947.513 7.474z" fill="#2DB5CB" data-color="1"></path>
        <path d="M118.914 122.812c2.881-2.193 6.392-2.775 8.865-5.516-.781-.468-1.297-.954-1.898-1.111-5.951-1.549-11.9-3.117-17.889-4.503-1.501-.347-3.151-.13-4.727-.053-1.47.072-2.388.918-2.848 2.34a28.419 28.419 0 0 1-.657 1.778c-.323 3.732-.586 7.465-.645 11.213 3.009 3.157 14.36-1.798 19.799-4.148z" fill="#2DB5CB" data-color="1"></path>
        <path d="M133.224 99.838c-.081 1.752-.123 3.507-.261 5.254-.054.684-.27 1.37-.504 2.021-.372 1.035-1.272 1.045-2.183 1.037-.954-.008-1.331-.505-1.597-1.39-.733-2.439-.78-4.835.104-7.231.554-1.5 1.693-2.275 3.242-2.101 1.53.173 1.309 1.361 1.199 2.41z" fill="#2DB5CB" data-color="1"></path>
        <path d="M106.682 95.224c.216 2.59.406 5.179.659 7.763.135 1.375.018 2.634-1.142 3.561-1.272 1.017-2.669.543-2.852-1.083-.253-2.25-.403-4.523-.391-6.786.005-.901.44-1.867.897-2.681.627-1.116 1.209-1.196 2.829-.774z" fill="#2DB5CB" data-color="1"></path>
        <path d="M137.246 113.784c-.852-3.164-.878-5.977.003-8.788.288-.919.936-1.488 1.979-1.347 1.035.14 1.51.86 1.572 1.813.108 1.66.216 3.328.172 4.989-.056 2.108-1.769 2.535-3.726 3.333z" fill="#2DB5CB" data-color="1"></path>
        <path d="M82.529 92.281c1.465.455 2.297 1.416 2.404 2.985.107 1.56.315 3.12.301 4.679-.004.476-.531 1.264-.932 1.344-.574.115-1.42-.105-1.853-.504-1.462-1.348-1.354-6.797.08-8.504z" fill="#2DB5CB" data-color="1"></path>
        <path d="M33.188 89.84c2.379-.702 3.443-.625 3.816.544.251.787.219 2.179-.266 2.562-.673.532-2.042.749-2.843.427-1.59-.638-1.071-2.125-.707-3.533z" fill="#2DB5CB" data-color="1"></path>
        <path d="M121.529 105.125h1.761c.193 1.172.444 2.256.524 3.352.042.583-.158 1.205-.345 1.777-.386 1.18-1.242 1.394-2.12.514-.842-.845-1.311-1.8-.732-3.045.36-.776.575-1.62.912-2.598z" fill="#2DB5CB" data-color="1"></path>
        <path d="M162.347 104.719c-2.021.054-3.046-.766-3.038-2.429.008-1.655.879-2.533 2.584-2.604 1.985-.082 2.806.567 2.82 2.227.015 1.855-.751 2.763-2.366 2.806z" fill="#2DB5CB" data-color="1"></path>
    </g>
</svg>